<?xml version="1.0" encoding="utf-8"?>
<!-- Generator: Adobe Illustrator 16.0.0, SVG Export Plug-In . SVG Version: 6.00 Build 0)  -->
<!DOCTYPE svg PUBLIC "-//W3C//DTD SVG 1.1//EN" "http://www.w3.org/Graphics/SVG/1.1/DTD/svg11.dtd">
<svg version="1.1" id="Layer_1" xmlns="http://www.w3.org/2000/svg" xmlns:xlink="http://www.w3.org/1999/xlink" x="0px" y="0px"
	 width="64px" height="64px" viewBox="0 0 64 64" enable-background="new 0 0 64 64" xml:space="preserve">
<path fill="#FFFFFF" d="M49.549,21.219c-2.341,0-4.605,0.585-6.617,1.683c-2.447-5.159-7.725-8.634-13.634-8.634
	c-8.065,0-14.672,6.365-15.062,14.334c-3.704,0.441-6.88,2.9-8.253,6.332c-3.077,0.771-5.364,3.559-5.364,6.871
	c0,3.903,3.176,7.08,7.081,7.08h20.696c0-3.713,0-7.425,0-11.138c-0.869,0-2.563,0-3.432,0c-0.664,0-0.887-0.758-0.503-1.218
	c2.07-2.486,4.966-4.973,7.036-7.46c0.152-0.183,0.332-0.249,0.504-0.237c0.173-0.012,0.353,0.055,0.504,0.237
	c2.069,2.487,4.966,4.974,7.036,7.46c0.383,0.46,0.16,1.218-0.505,1.218c-0.868,0-2.562,0-3.431,0c0,3.713,0,7.425,0,11.138h13.942
	c7.629,0,13.834-6.205,13.834-13.833S57.177,21.219,49.549,21.219z"/>
</svg>
